<?xml version="1.0" encoding="UTF-8" standalone="no"?>
<svg
   xmlns:dc="http://purl.org/dc/elements/1.1/"
   xmlns:cc="http://creativecommons.org/ns#"
   xmlns:rdf="http://www.w3.org/1999/02/22-rdf-syntax-ns#"
   xmlns:svg="http://www.w3.org/2000/svg"
   xmlns="http://www.w3.org/2000/svg"
   height="270.16202"
   width="1279.5469"
   id="svg1516"
   version="1.1"
   viewBox="0 0 1279.5469 270.16202">
  <metadata
     id="metadata1520">
    <rdf:RDF>
      <cc:Work
         rdf:about="">
        <dc:format>image/svg+xml</dc:format>
        <dc:type
           rdf:resource="http://purl.org/dc/dcmitype/StillImage" />
        <dc:title>MW-Data-Science-logo_v02_2021_yellow</dc:title>
      </cc:Work>
    </rdf:RDF>
  </metadata>
  <defs
     id="defs1491">
    <style
       id="style1489">.cls-1{font-size:54.35px;font-family:RoundedMplus1c-ExtraBold, &quot;Rounded Mplus 1c&quot;;font-weight:800;letter-spacing:0.04em;}.cls-1,.cls-8{fill:#f5e900;}.cls-2{letter-spacing:0.01em;}.cls-3{letter-spacing:0.03em;}.cls-4{letter-spacing:0.04em;}.cls-5{letter-spacing:0.06em;}.cls-6{letter-spacing:0.05em;}.cls-7{letter-spacing:0.03em;}</style>
  </defs>
  <title
     id="title1493">MW-Data-Science-logo_v02_2021_yellow</title>
  <g
     transform="translate(-198.31877,-156.49899)"
     data-name="Layer 1"
     id="Layer_1">
    <g
       id="text1511"
       style="font-weight:800;font-size:54.34999847px;font-family:RoundedMplus1c-ExtraBold, 'Rounded Mplus 1c';letter-spacing:0.04em;fill:#f5e900"
       transform="translate(426.63,207.9)"
       aria-label="Malawi Data Science Bootcamp 2021">
      <path
         id="path1934"
         style="font-weight:800;font-size:54.34999847px;font-family:RoundedMplus1c-ExtraBold, 'Rounded Mplus 1c';letter-spacing:0.04em;fill:#f5e900"
         d="M 7.2285498,0 Q 5.9784998,0 5.0545499,-0.92394997 4.1305999,-1.8478999 4.1305999,-3.0979499 V -36.577549 q 0,-1.25005 0.92395,-2.174 0.9239499,-0.92395 2.1739999,-0.92395 H 10.3265 q 1.4131,0 2.55445,0.7609 1.14135,0.7609 1.68485,2.0653 l 8.424249,20.489949 q 0,0.05435 0.05435,0.05435 0.05435,0 0.05435,-0.05435 l 8.42425,-20.489949 q 0.5435,-1.3044 1.68485,-2.0653 1.14135,-0.7609 2.55445,-0.7609 h 3.31535 q 1.25005,0 2.174,0.92395 0.92395,0.92395 0.92395,2.174 v 33.4795991 q 0,1.25005 -0.92395,2.17399993 Q 40.327699,0 39.077649,0 h -2.6088 q -1.25005,0 -2.174,-0.92394997 -0.8696,-0.92394993 -0.8696,-2.17399993 V -24.240099 q 0,-0.05435 -0.05435,-0.05435 -0.1087,0 -0.1087,0.05435 l -5.2176,12.337449 q -0.5435,1.3044 -1.7392,2.0653003 -1.14135,0.7609 -2.55445,0.7609 h -1.4131 q -1.4131,0 -2.6088,-0.7609 -1.14135,-0.7609003 -1.68485,-2.0653003 L 12.8266,-24.240099 q 0,-0.05435 -0.1087,-0.05435 -0.05435,0 -0.05435,0.05435 v 21.1421491 q 0,1.25005 -0.92395,2.17399993 Q 10.87,0 9.6199497,0 Z" />
      <path
         id="path1936"
         style="font-weight:800;font-size:54.34999847px;font-family:RoundedMplus1c-ExtraBold, 'Rounded Mplus 1c';letter-spacing:0.04em;fill:#f5e900"
         d="m 65.383009,-12.9353 q -6.6307,0 -6.6307,4.0762502 0,1.46745 0.8696,2.33705 0.8696,0.81525 2.33705,0.81525 2.6088,0 4.2393,-1.6305 1.6305,-1.6848499 1.6305,-4.4567002 v -0.6522 q 0,-0.48915 -0.48915,-0.48915 z m -6.0872,13.47879998 q -3.750149,0 -6.195899,-2.39139988 -2.3914,-2.44575 -2.3914,-6.3045999 0,-9.8916992 14.674499,-9.8916992 h 1.9566 q 0.48915,0 0.48915,-0.4348 v -0.27175 q 0,-2.0653 -1.087,-2.98925 -1.03265,-0.92395 -3.53275,-0.92395 -3.31535,0 -7.935099,1.03265 -1.14135,0.2174 -2.0653,-0.48915 -0.8696,-0.70655 -0.8696,-1.8479 v -0.1087 q 0,-1.35875 0.81525,-2.44575 0.8696,-1.14135 2.174,-1.35875 4.782799,-0.92395 8.261199,-0.92395 7.11985,0 10.05475,2.55445 2.98925,2.55445 2.98925,8.478599 v 14.6745001 q 0,1.25005 -0.92395,2.17399993 Q 74.785559,0 73.535509,0 h -2.01095 q -1.3044,0 -2.22835,-0.86959998 -0.92395,-0.92394992 -0.9783,-2.22834992 v -0.59785 q 0,-0.05435 -0.05435,-0.05435 -0.1087,0 -0.1087,0.05435 -3.42405,4.23929988 -8.85905,4.23929988 z" />
      <path
         id="path1938"
         style="font-weight:800;font-size:54.34999847px;font-family:RoundedMplus1c-ExtraBold, 'Rounded Mplus 1c';letter-spacing:0.04em;fill:#f5e900"
         d="m 90.166526,0 q -1.25005,0 -2.174,-0.92394997 -0.92395,-0.92394993 -0.92395,-2.17399993 V -37.664549 q 0,-1.25005 0.92395,-2.174 0.92395,-0.92395 2.174,-0.92395 h 3.0436 q 1.25005,0 2.174,0.92395 0.92395,0.92395 0.92395,2.174 v 34.5665991 q 0,1.25005 -0.92395,2.17399993 Q 94.460176,0 93.210126,0 Z" />
      <path
         id="path1940"
         style="font-weight:800;font-size:54.34999847px;font-family:RoundedMplus1c-ExtraBold, 'Rounded Mplus 1c';letter-spacing:0.04em;fill:#f5e900"
         d="m 120.33074,-12.9353 q -6.6307,0 -6.6307,4.0762502 0,1.46745 0.8696,2.33705 0.8696,0.81525 2.33705,0.81525 2.6088,0 4.2393,-1.6305 1.6305,-1.6848499 1.6305,-4.4567002 v -0.6522 q 0,-0.48915 -0.48915,-0.48915 z m -6.0872,13.47879998 q -3.75015,0 -6.1959,-2.39139988 -2.3914,-2.44575 -2.3914,-6.3045999 0,-9.8916992 14.6745,-9.8916992 h 1.9566 q 0.48915,0 0.48915,-0.4348 v -0.27175 q 0,-2.0653 -1.087,-2.98925 -1.03265,-0.92395 -3.53275,-0.92395 -3.31535,0 -7.9351,1.03265 -1.14135,0.2174 -2.0653,-0.48915 -0.8696,-0.70655 -0.8696,-1.8479 v -0.1087 q 0,-1.35875 0.81525,-2.44575 0.8696,-1.14135 2.174,-1.35875 4.7828,-0.92395 8.2612,-0.92395 7.11985,0 10.05475,2.55445 2.98925,2.55445 2.98925,8.478599 v 14.6745001 q 0,1.25005 -0.92395,2.17399993 Q 129.73329,0 128.48324,0 h -2.01095 q -1.3044,0 -2.22835,-0.86959998 -0.92395,-0.92394992 -0.9783,-2.22834992 v -0.59785 q 0,-0.05435 -0.0543,-0.05435 -0.1087,0 -0.1087,0.05435 -3.42405,4.23929988 -8.85905,4.23929988 z" />
      <path
         id="path1942"
         style="font-weight:800;font-size:54.34999847px;font-family:RoundedMplus1c-ExtraBold, 'Rounded Mplus 1c';letter-spacing:0.04em;fill:#f5e900"
         d="m 143.26633,-2.9892499 -5.05455,-22.2834991 q -0.2174,-1.14135 0.48915,-2.0653 0.70655,-0.92395 1.90225,-0.92395 h 2.7175 q 1.35875,0 2.33705,0.8696 0.9783,0.8696 1.1957,2.174 l 2.7175,18.0985492 q 0,0.05435 0.0543,0.05435 0.0543,0 0.0543,-0.05435 l 2.98925,-18.0985492 q 0.2174,-1.3044 1.1957,-2.174 0.9783,-0.8696 2.33705,-0.8696 h 4.0219 q 1.35875,0 2.33705,0.8696 1.03265,0.8696 1.25005,2.174 l 2.9349,18.0985492 q 0,0.05435 0.0543,0.05435 0.0543,0 0.0543,-0.05435 l 2.7175,-18.0985492 q 0.2174,-1.3044 1.1957,-2.174 0.9783,-0.8696 2.33705,-0.8696 h 2.5001 q 1.1957,0 1.90225,0.92395 0.7609,0.92395 0.48915,2.0653 l -5.05455,22.2834991 Q 172.66968,-1.68485 171.58268,-0.81524998 170.49568,0 169.13693,0 h -4.2393 q -1.35875,0 -2.3914,-0.86959998 -0.9783,-0.86960002 -1.25005,-2.17399992 l -3.09795,-17.5550491 q 0,-0.05435 -0.0543,-0.05435 -0.0543,0 -0.0543,0.05435 l -3.09795,17.5550491 Q 154.73418,-1.7392 153.70153,-0.86959998 152.66888,0 151.31013,0 h -4.2393 q -1.35875,0 -2.44575,-0.81524998 -1.087,-0.86960002 -1.35875,-2.17399992 z" />
      <path
         id="path1944"
         style="font-weight:800;font-size:54.34999847px;font-family:RoundedMplus1c-ExtraBold, 'Rounded Mplus 1c';letter-spacing:0.04em;fill:#f5e900"
         d="m 190.00732,0 q -1.25005,0 -2.174,-0.92394997 -0.92395,-0.92394993 -0.92395,-2.17399993 V -25.164049 q 0,-1.25005 0.92395,-2.174 0.92395,-0.92395 2.174,-0.92395 h 3.0436 q 1.25005,0 2.174,0.92395 0.92395,0.92395 0.92395,2.174 v 22.0660991 q 0,1.25005 -0.92395,2.17399993 Q 194.30097,0 193.05092,0 Z m 0,-33.696999 q -1.25005,0 -2.174,-0.92395 -0.92395,-0.92395 -0.92395,-2.174 v -0.8696 q 0,-1.25005 0.92395,-2.174 0.92395,-0.92395 2.174,-0.92395 h 3.0436 q 1.25005,0 2.174,0.92395 0.92395,0.92395 0.92395,2.174 v 0.8696 q 0,1.25005 -0.92395,2.174 -0.92395,0.92395 -2.174,0.92395 z" />
      <path
         id="path1946"
         style="font-weight:800;font-size:54.34999847px;font-family:RoundedMplus1c-ExtraBold, 'Rounded Mplus 1c';letter-spacing:0.04em;fill:#f5e900"
         d="m 234.41115,-32.175199 v 24.6748992 q 0,0.48915 0.48915,0.59785 1.087,0.2174 2.6088,0.2174 5.48935,0 8.09815,-3.2066499 2.66315,-3.2066503 2.66315,-10.4895493 0,-6.522 -2.66315,-9.5656 -2.66315,-3.0436 -8.09815,-3.0436 -1.5218,0 -2.6088,0.2174 -0.48915,0.1087 -0.48915,0.59785 z M 228.43265,0.1087 q -1.3044,-0.1087 -2.174,-1.08699997 -0.8696,-1.03264993 -0.8696,-2.39139993 V -36.305799 q 0,-1.35875 0.8696,-2.33705 0.8696,-1.03265 2.174,-1.14135 4.2393,-0.4348 8.3699,-0.4348 9.72865,0 15.0006,5.16325 5.27195,5.16325 5.27195,14.6745 0,10.326499 -5.27195,15.6527991 -5.27195,5.27194988 -15.0006,5.27194988 -4.1306,0 -8.3699,-0.43479998 z" />
      <path
         id="path1948"
         style="font-weight:800;font-size:54.34999847px;font-family:RoundedMplus1c-ExtraBold, 'Rounded Mplus 1c';letter-spacing:0.04em;fill:#f5e900"
         d="m 277.83672,-12.9353 q -6.6307,0 -6.6307,4.0762502 0,1.46745 0.8696,2.33705 0.8696,0.81525 2.33705,0.81525 2.6088,0 4.2393,-1.6305 1.6305,-1.6848499 1.6305,-4.4567002 v -0.6522 q 0,-0.48915 -0.48915,-0.48915 z m -6.0872,13.47879998 q -3.75015,0 -6.1959,-2.39139988 -2.3914,-2.44575 -2.3914,-6.3045999 0,-9.8916992 14.6745,-9.8916992 h 1.9566 q 0.48915,0 0.48915,-0.4348 v -0.27175 q 0,-2.0653 -1.087,-2.98925 -1.03265,-0.92395 -3.53275,-0.92395 -3.31535,0 -7.9351,1.03265 -1.14135,0.2174 -2.0653,-0.48915 -0.8696,-0.70655 -0.8696,-1.8479 v -0.1087 q 0,-1.35875 0.81525,-2.44575 0.8696,-1.14135 2.174,-1.35875 4.7828,-0.92395 8.2612,-0.92395 7.11985,0 10.05475,2.55445 2.98925,2.55445 2.98925,8.478599 v 14.6745001 q 0,1.25005 -0.92395,2.17399993 Q 287.23927,0 285.98922,0 h -2.01095 q -1.3044,0 -2.22835,-0.86959998 -0.92395,-0.92394992 -0.9783,-2.22834992 v -0.59785 q 0,-0.05435 -0.0543,-0.05435 -0.1087,0 -0.1087,0.05435 -3.42405,4.23929988 -8.85905,4.23929988 z" />
      <path
         id="path1950"
         style="font-weight:800;font-size:54.34999847px;font-family:RoundedMplus1c-ExtraBold, 'Rounded Mplus 1c';letter-spacing:0.04em;fill:#f5e900"
         d="m 298.27219,-21.033449 q -1.25005,0 -2.174,-0.8696 -0.92395,-0.92395 -0.92395,-2.174 0,-1.25005 0.92395,-2.174 0.92395,-0.92395 2.174,-0.92395 h 2.174 q 0.4348,0 0.4348,-0.48915 v -6.7394 q 0,-1.25005 0.92395,-2.174 0.92395,-0.92395 2.174,-0.92395 h 2.6088 q 1.25005,0 2.174,0.92395 0.92395,0.92395 0.92395,2.174 v 6.7394 q 0,0.48915 0.48915,0.48915 h 5.3263 q 1.25005,0 2.11965,0.92395 0.92395,0.92395 0.92395,2.174 0,1.25005 -0.92395,2.174 -0.8696,0.8696 -2.11965,0.8696 h -5.3263 q -0.48915,0 -0.48915,0.48915 v 9.293849 q 0,3.4240502 0.59785,4.3480002 0.6522,0.92395 2.8262,0.92395 1.14135,0 1.79355,-0.1087 1.1957,-0.16305 2.11965,0.5435 0.92395,0.7065499 0.92395,1.8478999 v 0.4348 q 0,1.35875 -0.8696,2.39139992 -0.8696,1.03264998 -2.22835,1.19569997 -1.68485,0.21739999 -3.9132,0.21739999 -5.5437,0 -7.8264,-2.33704988 -2.22835,-2.3914 -2.22835,-8.5329501 v -10.217799 q 0,-0.48915 -0.4348,-0.48915 z" />
      <path
         id="path1952"
         style="font-weight:800;font-size:54.34999847px;font-family:RoundedMplus1c-ExtraBold, 'Rounded Mplus 1c';letter-spacing:0.04em;fill:#f5e900"
         d="m 340.66512,-12.9353 q -6.6307,0 -6.6307,4.0762502 0,1.46745 0.8696,2.33705 0.8696,0.81525 2.33705,0.81525 2.6088,0 4.2393,-1.6305 1.6305,-1.6848499 1.6305,-4.4567002 v -0.6522 q 0,-0.48915 -0.48915,-0.48915 z m -6.0872,13.47879998 q -3.75015,0 -6.1959,-2.39139988 -2.3914,-2.44575 -2.3914,-6.3045999 0,-9.8916992 14.6745,-9.8916992 h 1.9566 q 0.48915,0 0.48915,-0.4348 v -0.27175 q 0,-2.0653 -1.087,-2.98925 -1.03265,-0.92395 -3.53275,-0.92395 -3.31535,0 -7.9351,1.03265 -1.14135,0.2174 -2.0653,-0.48915 -0.8696,-0.70655 -0.8696,-1.8479 v -0.1087 q 0,-1.35875 0.81525,-2.44575 0.8696,-1.14135 2.174,-1.35875 4.7828,-0.92395 8.2612,-0.92395 7.11985,0 10.05475,2.55445 2.98925,2.55445 2.98925,8.478599 v 14.6745001 q 0,1.25005 -0.92395,2.17399993 Q 350.06767,0 348.81762,0 h -2.01095 q -1.3044,0 -2.22835,-0.86959998 -0.92395,-0.92394992 -0.9783,-2.22834992 v -0.59785 q 0,-0.05435 -0.0543,-0.05435 -0.1087,0 -0.1087,0.05435 -3.42405,4.23929988 -8.85905,4.23929988 z" />
      <path
         id="path1954"
         style="font-weight:800;font-size:54.34999847px;font-family:RoundedMplus1c-ExtraBold, 'Rounded Mplus 1c';letter-spacing:0.04em;fill:#f5e900"
         d="m 391.10174,-15.8702 q -6.8481,-2.173999 -9.8917,-5.380649 -3.0436,-3.261 -3.0436,-7.9351 0,-5.1089 3.53275,-8.0438 3.5871,-2.98925 10.2178,-2.98925 5.0002,0 9.07645,1.14135 1.3044,0.38045 2.0653,1.57615 0.81525,1.14135 0.81525,2.55445 v 1.57615 q 0,1.087 -0.92395,1.68485 -0.92395,0.59785 -1.9566,0.2174 -4.61975,-1.6305 -8.53295,-1.6305 -5.0002,0 -5.0002,3.9132 0,3.31535 4.348,4.72845 7.5003,2.2827 10.38085,5.3263 2.9349,3.043599 2.9349,7.989449 0,11.68524998 -14.72885,11.68524998 -4.6741,0 -8.4786,-1.46744995 -1.3044,-0.48915003 -2.0653,-1.68484993 -0.70655,-1.25005 -0.70655,-2.7175 v -1.7391999 q 0,-0.9783 0.8696,-1.46745 0.8696,-0.5434999 1.7392,-0.1087 3.96755,1.9566 8.09815,1.9566 2.88055,0 4.348,-1.087 1.5218,-1.1413499 1.5218,-3.2066502 0,-1.79355 -1.03265,-2.9349 -1.03265,-1.14135 -3.5871,-1.9566 z" />
      <path
         id="path1956"
         style="font-weight:800;font-size:54.34999847px;font-family:RoundedMplus1c-ExtraBold, 'Rounded Mplus 1c';letter-spacing:0.04em;fill:#f5e900"
         d="m 426.26618,0.54349998 q -7.01115,0 -10.76129,-3.69579988 -3.75015,-3.6957999 -3.75015,-10.9787001 0,-7.119849 3.5871,-10.869999 3.64145,-3.8045 10.38084,-3.8045 2.22835,0 5.92415,0.48915 1.35875,0.2174 2.174,1.25005 0.8696,0.9783 0.8696,2.33705 v 0.5435 q 0,1.14135 -0.92395,1.8479 -0.92395,0.70655 -2.0653,0.48915 -2.22835,-0.38045 -4.61975,-0.38045 -3.09795,0 -4.61975,1.9566 -1.46745,1.90225 -1.46745,6.141549 0,4.3480003 1.57615,6.2502502 1.6305,1.8479 5.05455,1.8479 2.55445,0 4.5654,-0.4348 1.14135,-0.27175 2.01095,0.4348 0.92395,0.7065499 0.92395,1.8478999 v 0.5435 q 0,1.35875 -0.8696,2.4457499 -0.8696,1.03265 -2.174,1.25005 -2.98925,0.48914998 -5.81545,0.48914998 z" />
      <path
         id="path1958"
         style="font-weight:800;font-size:54.34999847px;font-family:RoundedMplus1c-ExtraBold, 'Rounded Mplus 1c';letter-spacing:0.04em;fill:#f5e900"
         d="m 448.65833,0 q -1.25005,0 -2.174,-0.92394997 -0.92395,-0.92394993 -0.92395,-2.17399993 V -25.164049 q 0,-1.25005 0.92395,-2.174 0.92395,-0.92395 2.174,-0.92395 h 3.0436 q 1.25005,0 2.174,0.92395 0.92395,0.92395 0.92395,2.174 v 22.0660991 q 0,1.25005 -0.92395,2.17399993 Q 452.95198,0 451.70193,0 Z m 0,-33.696999 q -1.25005,0 -2.174,-0.92395 -0.92395,-0.92395 -0.92395,-2.174 v -0.8696 q 0,-1.25005 0.92395,-2.174 0.92395,-0.92395 2.174,-0.92395 h 3.0436 q 1.25005,0 2.174,0.92395 0.92395,0.92395 0.92395,2.174 v 0.8696 q 0,1.25005 -0.92395,2.174 -0.92395,0.92395 -2.174,0.92395 z" />
      <path
         id="path1960"
         style="font-weight:800;font-size:54.34999847px;font-family:RoundedMplus1c-ExtraBold, 'Rounded Mplus 1c';letter-spacing:0.04em;fill:#f5e900"
         d="m 477.62686,-22.881349 q -2.44575,0 -3.6958,1.3044 -1.25005,1.25005 -1.57615,4.347999 0,0.4348 0.38045,0.4348 h 9.18515 q 0.48915,0 0.48915,-0.48915 -0.2174,-5.598049 -4.7828,-5.598049 z m 1.35875,23.42484898 q -7.3916,0 -11.4135,-3.75014988 -3.96755,-3.7501499 -3.96755,-10.9243501 0,-7.119849 3.53275,-10.869999 3.5871,-3.8045 10.3265,-3.8045 12.9353,0 13.1527,14.130999 0,1.3044 -1.03265,2.22835 -0.9783,0.8696 -2.2827,0.8696 h -14.51145 q -0.5435,0 -0.4348,0.48915 0.4348,2.9892502 2.2827,4.2936502 1.90225,1.25005 5.6524,1.25005 2.44575,0 5.27195,-0.70655 1.14135,-0.27175 2.01095,0.4348 0.92395,0.7065499 0.92395,1.8478999 v 0.1087 q 0,1.35875 -0.8696,2.5000999 -0.81525,1.08700001 -2.11965,1.3044 -3.1523,0.59784998 -6.522,0.59784998 z" />
      <path
         id="path1962"
         style="font-weight:800;font-size:54.34999847px;font-family:RoundedMplus1c-ExtraBold, 'Rounded Mplus 1c';letter-spacing:0.04em;fill:#f5e900"
         d="m 501.37777,0 q -1.25005,0 -2.174,-0.92394997 -0.8696,-0.92394993 -0.8696,-2.17399993 V -25.164049 q 0,-1.25005 0.8696,-2.174 0.92395,-0.92395 2.174,-0.92395 h 2.22835 q 1.3044,0 2.174,0.92395 0.92395,0.8696 0.9783,2.174 l 0.0543,0.4348 q 0,0.05435 0.0543,0.05435 l 0.1087,-0.1087 q 3.53275,-4.0219 8.4786,-4.0219 4.94585,0 7.11985,2.8262 2.174,2.77185 2.174,9.511249 v 13.3701001 q 0,1.25005 -0.92395,2.17399993 Q 522.95472,0 521.70467,0 h -2.3914 q -1.25005,0 -2.174,-0.92394997 -0.92395,-0.92394993 -0.92395,-2.17399993 V -16.1963 q 0,-3.260999 -0.8696,-4.456699 -0.8696,-1.25005 -3.1523,-1.25005 -1.90225,0 -3.53275,1.57615 -1.57615,1.5218 -1.57615,3.315349 v 13.9136001 q 0,1.25005 -0.92395,2.17399993 Q 505.29097,0 504.04092,0 Z" />
      <path
         id="path1964"
         style="font-weight:800;font-size:54.34999847px;font-family:RoundedMplus1c-ExtraBold, 'Rounded Mplus 1c';letter-spacing:0.04em;fill:#f5e900"
         d="m 546.43385,0.54349998 q -7.01115,0 -10.7613,-3.69579988 -3.75015,-3.6957999 -3.75015,-10.9787001 0,-7.119849 3.5871,-10.869999 3.64145,-3.8045 10.38085,-3.8045 2.22835,0 5.92415,0.48915 1.35875,0.2174 2.174,1.25005 0.8696,0.9783 0.8696,2.33705 v 0.5435 q 0,1.14135 -0.92395,1.8479 -0.92395,0.70655 -2.0653,0.48915 -2.22835,-0.38045 -4.61975,-0.38045 -3.09795,0 -4.61975,1.9566 -1.46745,1.90225 -1.46745,6.141549 0,4.3480003 1.57615,6.2502502 1.6305,1.8479 5.05455,1.8479 2.55445,0 4.5654,-0.4348 1.14135,-0.27175 2.01095,0.4348 0.92395,0.7065499 0.92395,1.8478999 v 0.5435 q 0,1.35875 -0.8696,2.4457499 -0.8696,1.03265 -2.174,1.25005 -2.98925,0.48914998 -5.81545,0.48914998 z" />
      <path
         id="path1966"
         style="font-weight:800;font-size:54.34999847px;font-family:RoundedMplus1c-ExtraBold, 'Rounded Mplus 1c';letter-spacing:0.04em;fill:#f5e900"
         d="m 576.48938,-22.881349 q -2.44575,0 -3.6958,1.3044 -1.25005,1.25005 -1.57615,4.347999 0,0.4348 0.38045,0.4348 h 9.18515 q 0.48915,0 0.48915,-0.48915 -0.2174,-5.598049 -4.7828,-5.598049 z m 1.35875,23.42484898 q -7.3916,0 -11.4135,-3.75014988 -3.96755,-3.7501499 -3.96755,-10.9243501 0,-7.119849 3.53275,-10.869999 3.5871,-3.8045 10.3265,-3.8045 12.9353,0 13.1527,14.130999 0,1.3044 -1.03265,2.22835 -0.9783,0.8696 -2.2827,0.8696 h -14.51145 q -0.5435,0 -0.4348,0.48915 0.4348,2.9892502 2.2827,4.2936502 1.90225,1.25005 5.6524,1.25005 2.44575,0 5.27195,-0.70655 1.14135,-0.27175 2.01095,0.4348 0.92395,0.7065499 0.92395,1.8478999 v 0.1087 q 0,1.35875 -0.8696,2.5000999 -0.81525,1.08700001 -2.11965,1.3044 -3.1523,0.59784998 -6.522,0.59784998 z" />
      <path
         id="path1968"
         style="font-weight:800;font-size:54.34999847px;font-family:RoundedMplus1c-ExtraBold, 'Rounded Mplus 1c';letter-spacing:0.04em;fill:#f5e900"
         d="m 624.80641,-16.8485 v 9.5656002 q 0,0.48915 0.48915,0.59785 1.14135,0.2174 2.77185,0.2174 3.85885,0 5.6524,-1.4131 1.79355,-1.4674499 1.79355,-4.4567002 0,-5.0002 -8.1525,-5.0002 h -2.11965 q -0.4348,0 -0.4348,0.48915 z m 0,-15.544099 v 7.98945 q 0,0.4348 0.4348,0.4348 h 1.35875 q 7.9351,0 7.9351,-4.72845 0,-4.51105 -6.6307,-4.51105 -1.57615,0 -2.66315,0.2174 -0.4348,0.1087 -0.4348,0.59785 z M 618.77357,0.1087 q -1.3044,-0.1087 -2.174,-1.14135 -0.8696,-1.0326499 -0.8696,-2.3370499 V -36.305799 q 0,-1.35875 0.8696,-2.33705 0.92395,-1.03265 2.22835,-1.14135 4.23929,-0.4348 8.31554,-0.4348 15.7615,0 15.7615,10.16345 0,3.42405 -2.22835,5.81545 -2.174,2.3914 -5.8698,3.0436 -0.0543,0 -0.0543,0.1087 0,0.05435 0.1087,0.05435 4.29365,0.59785 6.79375,3.260999 2.55445,2.66315 2.55445,6.35895 0,6.0328502 -4.0219,9.0221001 -3.96755,2.93489988 -12.5005,2.93489988 -4.29365,0 -8.91339,-0.43479998 z" />
      <path
         id="path1970"
         style="font-weight:800;font-size:54.34999847px;font-family:RoundedMplus1c-ExtraBold, 'Rounded Mplus 1c';letter-spacing:0.04em;fill:#f5e900"
         d="m 668.01456,-20.652999 q -1.3044,-2.01095 -4.0219,-2.01095 -2.7175,0 -4.07625,2.01095 -1.3044,2.01095 -1.3044,6.521999 0,4.5110503 1.3044,6.5220002 1.35875,2.01095 4.07625,2.01095 2.7175,0 4.0219,-2.01095 1.35875,-2.0109499 1.35875,-6.5220002 0,-4.511049 -1.35875,-6.521999 z m 6.46765,17.3376491 q -3.75015,3.85884988 -10.48955,3.85884988 -6.7394,0 -10.48954,-3.85884988 -3.75015,-3.8588499 -3.75015,-10.8156501 0,-6.956799 3.75015,-10.815649 3.75014,-3.85885 10.48954,-3.85885 6.7394,0 10.48955,3.85885 3.75015,3.85885 3.75015,10.815649 0,6.9568002 -3.75015,10.8156501 z" />
      <path
         id="path1972"
         style="font-weight:800;font-size:54.34999847px;font-family:RoundedMplus1c-ExtraBold, 'Rounded Mplus 1c';letter-spacing:0.04em;fill:#f5e900"
         d="m 702.58097,-20.652999 q -1.3044,-2.01095 -4.0219,-2.01095 -2.7175,0 -4.07625,2.01095 -1.3044,2.01095 -1.3044,6.521999 0,4.5110503 1.3044,6.5220002 1.35875,2.01095 4.07625,2.01095 2.7175,0 4.0219,-2.01095 1.35875,-2.0109499 1.35875,-6.5220002 0,-4.511049 -1.35875,-6.521999 z m 6.46765,17.3376491 q -3.75015,3.85884988 -10.48955,3.85884988 -6.7394,0 -10.48955,-3.85884988 -3.75015,-3.8588499 -3.75015,-10.8156501 0,-6.956799 3.75015,-10.815649 3.75015,-3.85885 10.48955,-3.85885 6.7394,0 10.48955,3.85885 3.75015,3.85885 3.75015,10.815649 0,6.9568002 -3.75015,10.8156501 z" />
      <path
         id="path1974"
         style="font-weight:800;font-size:54.34999847px;font-family:RoundedMplus1c-ExtraBold, 'Rounded Mplus 1c';letter-spacing:0.04em;fill:#f5e900"
         d="m 721.44037,-21.033449 q -1.25005,0 -2.174,-0.8696 -0.92395,-0.92395 -0.92395,-2.174 0,-1.25005 0.92395,-2.174 0.92395,-0.92395 2.174,-0.92395 h 2.174 q 0.4348,0 0.4348,-0.48915 v -6.7394 q 0,-1.25005 0.92395,-2.174 0.92395,-0.92395 2.174,-0.92395 h 2.6088 q 1.25005,0 2.174,0.92395 0.92395,0.92395 0.92395,2.174 v 6.7394 q 0,0.48915 0.48915,0.48915 h 5.3263 q 1.25005,0 2.11965,0.92395 0.92395,0.92395 0.92395,2.174 0,1.25005 -0.92395,2.174 -0.8696,0.8696 -2.11965,0.8696 h -5.3263 q -0.48915,0 -0.48915,0.48915 v 9.293849 q 0,3.4240502 0.59785,4.3480002 0.6522,0.92395 2.8262,0.92395 1.14135,0 1.79355,-0.1087 1.1957,-0.16305 2.11965,0.5435 0.92395,0.7065499 0.92395,1.8478999 v 0.4348 q 0,1.35875 -0.8696,2.39139992 -0.8696,1.03264998 -2.22835,1.19569997 -1.68485,0.21739999 -3.9132,0.21739999 -5.5437,0 -7.8264,-2.33704988 -2.22835,-2.3914 -2.22835,-8.5329501 v -10.217799 q 0,-0.48915 -0.4348,-0.48915 z" />
      <path
         id="path1976"
         style="font-weight:800;font-size:54.34999847px;font-family:RoundedMplus1c-ExtraBold, 'Rounded Mplus 1c';letter-spacing:0.04em;fill:#f5e900"
         d="m 763.12672,0.54349998 q -7.01115,0 -10.7613,-3.69579988 -3.75015,-3.6957999 -3.75015,-10.9787001 0,-7.119849 3.5871,-10.869999 3.64145,-3.8045 10.38085,-3.8045 2.22835,0 5.92415,0.48915 1.35875,0.2174 2.174,1.25005 0.8696,0.9783 0.8696,2.33705 v 0.5435 q 0,1.14135 -0.92395,1.8479 -0.92395,0.70655 -2.0653,0.48915 -2.22835,-0.38045 -4.61975,-0.38045 -3.09795,0 -4.61975,1.9566 -1.46745,1.90225 -1.46745,6.141549 0,4.3480003 1.57615,6.2502502 1.6305,1.8479 5.05455,1.8479 2.55445,0 4.5654,-0.4348 1.14135,-0.27175 2.01095,0.4348 0.92395,0.7065499 0.92395,1.8478999 v 0.5435 q 0,1.35875 -0.8696,2.4457499 -0.8696,1.03265 -2.174,1.25005 -2.98925,0.48914998 -5.81545,0.48914998 z" />
      <path
         id="path1978"
         style="font-weight:800;font-size:54.34999847px;font-family:RoundedMplus1c-ExtraBold, 'Rounded Mplus 1c';letter-spacing:0.04em;fill:#f5e900"
         d="m 794.37795,-12.9353 q -6.6307,0 -6.6307,4.0762502 0,1.46745 0.8696,2.33705 0.8696,0.81525 2.33705,0.81525 2.6088,0 4.2393,-1.6305 1.6305,-1.6848499 1.6305,-4.4567002 v -0.6522 q 0,-0.48915 -0.48915,-0.48915 z m -6.0872,13.47879998 q -3.75015,0 -6.1959,-2.39139988 -2.3914,-2.44575 -2.3914,-6.3045999 0,-9.8916992 14.6745,-9.8916992 h 1.9566 q 0.48915,0 0.48915,-0.4348 v -0.27175 q 0,-2.0653 -1.087,-2.98925 -1.03265,-0.92395 -3.53275,-0.92395 -3.31535,0 -7.9351,1.03265 -1.14135,0.2174 -2.0653,-0.48915 -0.8696,-0.70655 -0.8696,-1.8479 v -0.1087 q 0,-1.35875 0.81525,-2.44575 0.8696,-1.14135 2.174,-1.35875 4.7828,-0.92395 8.2612,-0.92395 7.11985,0 10.05475,2.55445 2.98925,2.55445 2.98925,8.478599 v 14.6745001 q 0,1.25005 -0.92395,2.17399993 Q 803.7805,0 802.53045,0 h -2.01095 q -1.3044,0 -2.22835,-0.86959998 -0.92395,-0.92394992 -0.9783,-2.22834992 v -0.59785 q 0,-0.05435 -0.0543,-0.05435 -0.1087,0 -0.1087,0.05435 -3.42405,4.23929988 -8.85905,4.23929988 z" />
      <path
         id="path1980"
         style="font-weight:800;font-size:54.34999847px;font-family:RoundedMplus1c-ExtraBold, 'Rounded Mplus 1c';letter-spacing:0.04em;fill:#f5e900"
         d="m 817.80273,0 q -1.25005,0 -2.174,-0.92394997 -0.92395,-0.92394993 -0.92395,-2.17399993 V -25.164049 q 0,-1.25005 0.92395,-2.174 0.92395,-0.92395 2.174,-0.92395 h 2.01095 q 1.3044,0 2.174,0.92395 0.92395,0.8696 1.03265,2.174 l 0.0543,0.48915 q 0,0.05435 0.0543,0.05435 0.1087,0 0.1087,-0.05435 3.20665,-4.1306 7.33725,-4.1306 2.5001,0 3.96755,0.92395 1.46745,0.8696 2.7175,3.1523 0,0.1087 0.1087,0.1087 l 0.1087,-0.1087 q 3.75014,-4.07625 7.82639,-4.07625 4.61975,0 6.68505,2.5001 2.0653,2.44575 2.0653,8.3699 v 14.8375491 q 0,1.25005 -0.92395,2.17399993 Q 852.20627,0 850.95622,0 h -2.3914 q -1.25005,0 -2.174,-0.92394997 -0.92395,-0.92394993 -0.92395,-2.17399993 V -17.392 q 0,-2.934899 -0.6522,-3.858849 -0.6522,-0.9783 -2.44575,-0.9783 -1.25005,0 -2.44575,1.03265 -1.14134,1.03265 -1.14134,2.01095 v 16.0875991 q 0,1.25005 -0.92395,2.17399993 Q 836.93393,0 835.68388,0 h -2.3914 q -1.25005,0 -2.174,-0.92394997 -0.92395,-0.92394993 -0.92395,-2.17399993 V -17.392 q 0,-2.934899 -0.6522,-3.858849 -0.59785,-0.9783 -2.3914,-0.9783 -1.25005,0 -2.44575,1.03265 -1.1957,1.03265 -1.1957,2.01095 v 16.0875991 q 0,1.25005 -0.92395,2.17399993 Q 821.66158,0 820.41153,0 Z" />
      <path
         id="path1982"
         style="font-weight:800;font-size:54.34999847px;font-family:RoundedMplus1c-ExtraBold, 'Rounded Mplus 1c';letter-spacing:0.04em;fill:#f5e900"
         d="m 871.71786,-17.5007 v 6.7394 q 0,1.7935503 1.6305,3.3153502 1.68485,1.46745 3.8045,1.46745 2.5001,0 3.96755,-2.01095 1.46745,-2.0653002 1.46745,-6.1415502 0,-8.152499 -5.435,-8.152499 -2.11965,0 -3.8045,1.5218 -1.6305,1.46745 -1.6305,3.260999 z m -5.48935,29.4577 q -1.25005,0 -2.174,-0.92395 -0.92395,-0.92395 -0.92395,-2.1740002 V -25.164049 q 0,-1.25005 0.92395,-2.174 0.92395,-0.92395 2.174,-0.92395 h 2.174 q 1.3044,0 2.22835,0.92395 0.92395,0.8696 0.9783,2.174 v 0.4348 q 0,0.05435 0.0543,0.05435 l 0.1087,-0.1087 q 3.4784,-4.0219 8.3699,-4.0219 5.05455,0 8.0438,3.8045 3.0436,3.8045 3.0436,10.869999 0,6.8481002 -3.1523,10.7613001 -3.09795,3.91319988 -7.9351,3.91319988 -4.51105,0 -8.0438,-3.31534988 -0.0543,-0.05435 -0.1087,-0.05435 -0.0543,0 -0.0543,0.05435 V 8.8590498 q 0,1.2500502 -0.92395,2.1740002 -0.92395,0.92395 -2.174,0.92395 z" />
      <path
         id="path1984"
         style="font-weight:800;font-size:54.34999847px;font-family:RoundedMplus1c-ExtraBold, 'Rounded Mplus 1c';letter-spacing:0.04em;fill:#f5e900"
         d="m 920.6871,0 q -1.25005,0 -2.174,-0.92394997 -0.92395,-0.92394993 -0.92395,-2.17399993 v -1.25005 q 0,-3.0435999 2.44575,-4.9458498 9.1308,-7.1742003 12.0657,-10.9243493 2.98925,-3.75015 2.98925,-7.33725 0,-5.0002 -5.5437,-5.0002 -3.3697,0 -8.2612,1.8479 -1.03265,0.38045 -1.9566,-0.2174 -0.92395,-0.59785 -0.92395,-1.68485 v -2.2827 q 0,-1.4131 0.81525,-2.5001 0.81525,-1.14135 2.174,-1.5218 4.94585,-1.3044 9.51125,-1.3044 6.57635,0 10.1091,3.1523 3.5871,3.09795 3.5871,8.64165 0,4.7828 -3.0436,9.1308 -2.98925,4.293649 -11.7396,11.6852492 -0.0543,0.05435 -0.0543,0.1087 0,0.05435 0.0543,0.05435 h 11.90265 q 1.25005,0 2.11965,0.92395 0.92395,0.92395 0.92395,2.1739999 v 1.25005 q 0,1.25005 -0.92395,2.17399993 Q 942.9706,0 941.72055,0 Z" />
      <path
         id="path1986"
         style="font-weight:800;font-size:54.34999847px;font-family:RoundedMplus1c-ExtraBold, 'Rounded Mplus 1c';letter-spacing:0.04em;fill:#f5e900"
         d="m 973.29787,-30.218599 q -1.5218,-2.98925 -4.7828,-2.98925 -3.261,0 -4.83715,2.98925 -1.5218,2.98925 -1.5218,10.38085 0,7.391599 1.5218,10.3808493 1.57615,2.9892499 4.83715,2.9892499 3.261,0 4.7828,-2.9892499 1.57615,-2.9892503 1.57615,-10.3808493 0,-7.3916 -1.57615,-10.38085 z m 7.0655,25.9792991 q -3.85885,4.78279988 -11.8483,4.78279988 -7.98945,0 -11.90265,-4.78279988 -3.85885,-4.7827998 -3.85885,-15.5984491 0,-10.81565 3.85885,-15.59845 3.9132,-4.7828 11.90265,-4.7828 7.98945,0 11.8483,4.7828 3.9132,4.7828 3.9132,15.59845 0,10.8156493 -3.9132,15.5984491 z" />
      <path
         id="path1988"
         style="font-weight:800;font-size:54.34999847px;font-family:RoundedMplus1c-ExtraBold, 'Rounded Mplus 1c';letter-spacing:0.04em;fill:#f5e900"
         d="m 995.69009,0 q -1.25005,0 -2.174,-0.92394997 -0.92395,-0.92394993 -0.92395,-2.17399993 v -1.25005 q 0,-3.0435999 2.44575,-4.9458498 9.13081,-7.1742003 12.06571,-10.9243493 2.9892,-3.75015 2.9892,-7.33725 0,-5.0002 -5.5437,-5.0002 -3.3697,0 -8.26116,1.8479 -1.03265,0.38045 -1.9566,-0.2174 -0.92395,-0.59785 -0.92395,-1.68485 v -2.2827 q 0,-1.4131 0.81525,-2.5001 0.81525,-1.14135 2.174,-1.5218 4.94586,-1.3044 9.51126,-1.3044 6.5763,0 10.1091,3.1523 3.5871,3.09795 3.5871,8.64165 0,4.7828 -3.0436,9.1308 -2.9893,4.293649 -11.7396,11.6852492 -0.054,0.05435 -0.054,0.1087 0,0.05435 0.054,0.05435 h 11.9026 q 1.2501,0 2.1197,0.92395 0.9239,0.92395 0.9239,2.1739999 v 1.25005 q 0,1.25005 -0.9239,2.17399993 Q 1017.9736,0 1016.7235,0 Z" />
      <path
         id="path1990"
         style="font-weight:800;font-size:54.34999847px;font-family:RoundedMplus1c-ExtraBold, 'Rounded Mplus 1c';letter-spacing:0.04em;fill:#f5e900"
         d="m 1033.5719,-23.750949 q -0.7609,0.59785 -1.6305,0.16305 -0.8152,-0.4348 -0.8152,-1.4131 v -3.96755 q 0,-3.09795 2.5001,-4.8915 l 5.4893,-4.0219 q 2.4458,-1.79355 5.5981,-1.79355 h 3.424 q 1.2501,0 2.174,0.92395 0.924,0.92395 0.924,2.174 v 33.4795991 q 0,1.25005 -0.924,2.17399993 Q 1049.3878,0 1048.1377,0 h -3.424 q -1.2501,0 -2.174,-0.92394997 -0.924,-0.92394993 -0.924,-2.17399993 V -29.512049 h -0.054 -0.054 z" />
    </g>
    <path
       style="fill:#f5e900"
       id="path1513"
       d="m 342.29,189.28 -36.35,130.24 a 6.9,6.9 0 0 1 -3,4 9.22,9.22 0 0 1 -5.21,1.55 9.92,9.92 0 0 1 -5.11,-1.44 6.51,6.51 0 0 1 -3.11,-4.33 L 253,189.25 214.22,324.18 q -1.56,5.77 -8.44,5.78 -4.67,0 -6.44,-3.67 c -1.19,-2.44 -1.34,-5.37 -0.45,-8.77 L 244.2,163.83 a 11,11 0 0 1 3.44,-5.44 8.4,8.4 0 0 1 5.44,-1.89 8.14,8.14 0 0 1 5.45,2 10.26,10.26 0 0 1 3.22,5.11 l 36,131.28 35.76,-131.06 a 11.75,11.75 0 0 1 3.45,-5.33 8.4,8.4 0 0 1 10.88,0 10.26,10.26 0 0 1 3.22,5.11 L 417.94,394 454.2,264.07 a 6.87,6.87 0 0 1 3,-4 9.19,9.19 0 0 1 5.2,-1.55 9.88,9.88 0 0 1 5.1,1.44 6.49,6.49 0 0 1 3.1,4.32 L 507.05,394 545.68,259.42 q 1.55,-5.75 8.42,-5.75 c 3.1,0 5.24,1.21 6.42,3.65 1.18,2.44 1.33,5.35 0.45,8.75 l -45.19,153.28 a 11,11 0 0 1 -3.44,5.43 8.39,8.39 0 0 1 -5.42,1.88 8.13,8.13 0 0 1 -5.43,-2 10.26,10.26 0 0 1 -3.21,-5.1 L 462.4,288.63 426.73,419.35 a 11.74,11.74 0 0 1 -3.43,5.32 8.4,8.4 0 0 1 -10.86,0 10.26,10.26 0 0 1 -3.21,-5.1 z"
       class="cls-8" />
  </g>
</svg>
