<?xml version="1.0" standalone="no"?>
<!DOCTYPE svg PUBLIC "-//W3C//DTD SVG 20010904//EN"
 "http://www.w3.org/TR/2001/REC-SVG-20010904/DTD/svg10.dtd">
<svg version="1.0" xmlns="http://www.w3.org/2000/svg"
 width="1312.000000pt" height="1312.000000pt" viewBox="0 0 1312.000000 1312.000000"
 preserveAspectRatio="xMidYMid meet">
<metadata>
Created by potrace 1.14, written by Peter Selinger 2001-2017
</metadata>
<g transform="translate(0.000000,1312.000000) scale(0.100000,-0.100000)"
fill="#000000" stroke="none">
<path d="M1883 11426 c-117 -38 -187 -126 -239 -296 -12 -41 -37 -122 -54
-180 -35 -114 -41 -138 -42 -157 -1 -7 -6 -13 -11 -13 -6 0 -8 -2 -5 -5 3 -3
-6 -43 -19 -88 -13 -45 -26 -89 -28 -97 -2 -8 -4 -17 -6 -20 -1 -3 -3 -9 -4
-15 -1 -5 -5 -17 -8 -25 -5 -12 -28 -91 -32 -110 -3 -17 -40 -132 -52 -165 -8
-22 -14 -40 -13 -40 3 0 -19 -82 -37 -136 -8 -25 -16 -55 -18 -65 -2 -10 -4
-20 -5 -21 -2 -2 -4 -7 -5 -13 -1 -5 -3 -11 -5 -12 -1 -2 -3 -10 -5 -18 -3
-16 -70 -246 -132 -450 -19 -63 -36 -122 -38 -130 -2 -8 -8 -28 -15 -45 -6
-16 -11 -31 -10 -33 1 -1 -6 -28 -16 -60 -10 -31 -18 -63 -20 -70 -3 -15 -49
-167 -74 -247 -11 -33 -21 -69 -23 -80 -3 -18 -17 -66 -64 -218 -8 -26 -16
-53 -17 -60 -3 -16 -45 -155 -56 -187 -5 -14 -27 -90 -50 -170 -23 -80 -46
-156 -51 -170 -5 -14 -11 -34 -14 -45 -7 -32 -102 -357 -113 -385 -5 -14 -10
-29 -11 -35 -1 -5 -7 -28 -13 -50 -7 -22 -12 -44 -13 -50 0 -5 -3 -14 -6 -20
-6 -9 -18 -51 -24 -81 -2 -6 -14 -48 -28 -95 -26 -84 -70 -233 -109 -364 -11
-38 -26 -90 -34 -115 -7 -25 -25 -85 -39 -135 -15 -49 -39 -133 -55 -185 -15
-52 -45 -151 -65 -220 -20 -69 -48 -163 -62 -209 -14 -47 -26 -89 -27 -95 -1
-6 -11 -38 -21 -71 -21 -69 -19 -60 -29 -105 -5 -19 -13 -41 -18 -47 -6 -7 -8
-13 -5 -13 3 0 -2 -21 -10 -47 -25 -83 -27 -96 -27 -193 0 -82 4 -103 26 -150
41 -84 80 -118 158 -136 46 -10 170 -11 170 -1 0 5 4 6 8 3 12 -7 102 38 134
67 37 32 61 89 108 254 22 76 45 156 52 178 6 22 12 45 14 50 1 6 12 44 24 85
12 41 28 100 37 130 8 30 18 59 21 65 3 5 7 16 7 25 1 8 28 104 59 213 32 108
59 205 61 215 2 9 4 17 5 17 1 0 3 8 6 18 2 9 6 25 8 35 3 9 5 19 6 22 1 3 2
8 1 13 0 4 3 7 7 7 4 0 8 8 9 18 1 9 8 42 17 72 9 30 19 64 21 75 3 11 13 49
24 85 19 62 81 274 86 295 1 6 4 17 7 25 10 26 40 134 42 150 1 9 5 21 10 28
4 6 4 12 0 12 -3 0 -2 6 3 13 5 6 16 39 23 72 7 33 17 65 21 70 4 6 10 28 14
50 4 22 10 45 14 50 3 6 6 16 8 24 1 8 8 35 16 60 9 25 21 66 28 91 15 53 13
46 23 90 5 19 11 40 14 45 7 10 11 28 14 58 1 9 6 17 11 17 4 0 5 4 2 10 -3 5
1 22 9 38 8 16 13 32 10 34 -2 3 1 18 7 34 7 16 14 36 15 44 2 8 38 132 79
275 42 143 78 271 81 285 2 14 8 34 13 45 8 16 23 74 22 82 0 2 5 17 10 35 28
93 112 379 124 423 7 28 21 75 30 105 9 30 18 63 20 73 3 9 7 25 10 35 6 23
28 100 54 187 12 39 24 79 26 90 3 11 16 56 29 100 35 114 59 198 62 214 2 8
6 26 10 40 4 14 8 29 8 33 1 3 4 9 8 13 4 4 4 13 1 21 -3 8 0 14 7 14 6 0 9 4
5 9 -3 5 -1 12 5 16 5 3 12 -7 16 -22 3 -15 10 -39 14 -53 5 -14 16 -52 25
-85 9 -33 25 -89 35 -125 25 -90 51 -182 55 -200 2 -8 8 -30 14 -47 5 -18 7
-33 4 -33 -3 0 -1 -6 5 -12 10 -13 27 -77 24 -90 -1 -5 3 -8 9 -8 5 0 8 -4 5
-8 -4 -7 14 -74 54 -205 5 -15 9 -31 10 -35 0 -4 6 -25 12 -47 7 -22 13 -47
14 -55 3 -16 42 -154 52 -180 3 -8 6 -20 7 -26 5 -22 167 -600 173 -614 3 -8
4 -19 3 -24 -1 -4 3 -14 8 -20 6 -7 11 -27 13 -44 1 -18 5 -32 8 -32 4 0 7 -6
8 -12 0 -7 5 -29 11 -48 6 -19 17 -60 25 -90 8 -30 24 -89 36 -130 12 -41 24
-82 26 -90 6 -25 42 -153 53 -187 5 -18 7 -33 4 -33 -3 0 0 -6 6 -13 6 -8 8
-17 4 -20 -3 -4 -2 -7 3 -7 5 0 10 -8 11 -17 1 -19 2 -22 28 -113 22 -76 89
-314 106 -375 4 -16 24 -88 44 -160 20 -71 38 -134 39 -140 2 -5 5 -17 9 -25
4 -12 44 -153 61 -220 12 -43 39 -139 72 -255 20 -71 38 -137 39 -145 2 -8 4
-17 6 -20 1 -3 3 -9 4 -15 1 -5 4 -17 7 -25 7 -18 30 -103 31 -110 0 -3 8 -27
17 -55 9 -27 18 -53 18 -58 4 -23 17 -69 34 -125 11 -34 21 -68 22 -75 1 -6
15 -58 31 -115 26 -94 33 -108 77 -151 64 -63 159 -96 252 -88 81 8 86 9 129
35 21 12 41 22 44 22 3 0 23 19 44 42 36 41 56 86 85 198 8 30 17 62 21 70 3
8 7 22 8 30 1 8 10 42 19 75 9 33 19 67 21 75 2 8 4 15 5 15 1 0 3 7 5 15 1 8
8 35 16 60 7 25 13 50 15 56 1 6 25 93 54 194 29 101 53 188 54 194 1 6 5 17
9 24 5 6 6 12 3 12 -3 0 1 18 9 40 8 22 14 42 15 45 0 3 0 6 1 8 0 1 2 9 4 17
2 8 31 114 65 235 34 121 64 227 65 235 2 8 4 17 6 20 1 3 3 10 4 15 2 6 4 12
5 15 1 3 3 12 5 20 2 8 18 65 35 125 18 61 33 117 35 125 2 8 18 65 35 125 18
61 43 151 56 200 29 105 27 97 44 155 8 25 14 48 16 53 1 4 2 8 3 10 2 1 4 13
6 27 2 14 13 56 25 94 12 38 23 76 25 85 2 9 17 66 35 126 17 61 33 117 35
125 2 8 15 56 29 106 15 50 28 100 30 110 3 10 9 32 15 47 6 16 9 33 5 38 -3
5 0 9 5 9 6 0 10 3 9 8 -1 4 4 32 12 62 8 30 15 58 16 63 1 4 3 9 4 12 3 6 4
8 14 50 5 17 14 49 22 72 7 23 15 52 18 65 3 13 11 44 19 71 8 26 13 47 10 47
-3 0 -1 6 4 13 6 6 16 35 22 62 18 70 16 64 64 235 24 85 60 218 81 295 21 77
42 149 47 160 5 11 11 31 13 45 3 14 5 25 6 25 1 0 3 7 5 15 35 144 72 262 79
252 6 -10 55 -170 71 -232 2 -8 15 -53 29 -99 14 -47 23 -88 20 -92 -2 -4 -1
-9 4 -11 4 -1 31 -86 60 -188 30 -102 69 -239 89 -305 19 -66 36 -124 37 -130
1 -5 5 -15 8 -21 4 -6 10 -25 13 -42 3 -18 12 -51 19 -75 23 -69 47 -150 52
-177 3 -14 12 -47 21 -75 9 -27 18 -56 19 -63 1 -7 12 -46 24 -85 12 -40 23
-76 24 -82 1 -5 4 -15 8 -20 7 -12 23 -87 20 -97 -1 -5 2 -8 6 -8 5 0 9 -6 10
-12 0 -7 6 -31 12 -53 6 -22 13 -51 16 -65 3 -13 10 -30 16 -37 6 -7 8 -13 5
-13 -3 0 2 -24 13 -54 10 -30 16 -57 13 -60 -4 -3 -2 -6 3 -6 5 0 10 -8 10
-17 1 -16 23 -92 115 -403 11 -36 21 -72 23 -80 2 -8 10 -35 17 -60 7 -25 14
-49 15 -55 2 -5 22 -73 45 -150 22 -77 48 -165 55 -195 8 -30 18 -62 21 -70 7
-17 10 -26 17 -55 3 -11 16 -58 31 -105 14 -47 28 -96 31 -110 2 -14 7 -32 11
-40 3 -8 7 -19 8 -25 11 -42 58 -205 65 -225 6 -14 11 -34 13 -45 2 -11 7 -27
10 -35 5 -13 38 -122 43 -142 1 -5 3 -11 4 -15 1 -5 3 -12 4 -18 1 -5 5 -17 8
-25 6 -15 17 -61 17 -70 0 -3 5 -18 11 -35 7 -16 13 -37 15 -45 2 -8 26 -91
54 -185 27 -93 51 -179 53 -190 2 -11 6 -22 10 -25 4 -3 9 -20 13 -38 3 -18
11 -51 19 -75 23 -73 37 -121 40 -137 2 -8 6 -22 9 -30 3 -8 7 -24 10 -35 3
-11 23 -83 46 -160 23 -77 44 -144 45 -150 1 -5 8 -30 15 -55 7 -25 13 -46 12
-48 -1 -1 5 -17 12 -35 8 -17 12 -38 10 -44 -3 -7 -1 -13 4 -13 5 0 10 -12 11
-26 1 -15 7 -33 13 -40 6 -8 9 -14 5 -14 -3 0 -1 -12 5 -28 6 -15 12 -35 15
-46 2 -10 22 -82 45 -160 23 -77 43 -148 44 -156 2 -8 4 -15 5 -15 2 0 9 -30
14 -55 2 -8 8 -28 15 -43 6 -16 11 -32 11 -36 0 -4 11 -43 24 -87 13 -43 31
-106 41 -139 17 -60 40 -140 66 -225 8 -25 14 -47 15 -50 0 -3 6 -25 13 -50 7
-25 14 -50 15 -57 1 -7 5 -16 9 -19 4 -4 7 -18 7 -30 0 -13 5 -26 10 -29 6 -3
10 -16 10 -28 0 -12 7 -42 16 -67 9 -25 17 -52 19 -60 2 -8 23 -85 48 -170 25
-85 62 -213 82 -285 20 -71 40 -137 43 -145 3 -8 6 -19 7 -25 2 -5 11 -37 20
-70 10 -33 18 -62 17 -65 0 -3 6 -21 14 -40 8 -19 15 -36 15 -37 -1 -2 0 -6 0
-10 3 -20 6 -29 11 -43 6 -14 86 -288 94 -320 2 -8 10 -37 18 -65 8 -27 24
-84 36 -125 11 -41 23 -82 27 -90 3 -8 7 -19 9 -25 15 -58 75 -137 148 -193
55 -43 205 -52 280 -17 46 22 106 75 139 122 23 34 60 121 73 173 2 8 31 114
64 235 34 121 63 227 65 235 7 33 65 247 75 280 15 47 55 197 63 235 2 6 6 16
10 23 5 6 6 12 3 12 -3 0 -1 11 4 25 9 23 17 56 24 95 2 8 8 28 15 43 6 16 11
32 11 37 0 5 23 91 51 192 28 101 52 190 54 198 2 8 11 41 20 74 9 32 19 66
20 75 2 9 4 16 5 16 1 0 3 7 5 15 2 8 9 33 15 55 6 22 13 54 16 70 3 17 10 37
15 46 4 9 11 29 14 45 3 16 12 54 21 84 9 30 22 78 29 105 7 28 15 57 19 65 3
8 8 26 10 40 3 14 12 50 21 80 15 53 22 78 30 110 2 8 4 16 5 18 3 2 2 0 20
75 7 31 16 57 19 57 3 0 7 13 8 30 1 16 12 60 23 99 12 38 23 78 25 88 2 10 4
18 5 18 1 0 3 7 5 15 2 8 20 76 40 150 20 74 39 143 40 153 2 9 7 22 10 28 4
5 8 20 10 32 2 12 11 47 19 77 9 30 18 67 21 81 2 14 14 54 26 90 11 35 22 76
24 92 2 15 7 32 10 37 3 6 8 18 10 27 1 10 10 43 19 74 9 31 18 65 20 75 2 11
18 70 36 133 35 125 41 150 42 169 1 6 4 12 8 12 3 0 7 9 8 20 4 44 6 50 14
50 5 0 6 5 3 10 -3 6 -3 16 2 23 4 6 9 20 10 30 2 10 15 60 29 110 14 51 28
99 30 107 21 87 49 180 55 180 4 0 10 -17 14 -37 5 -21 9 -42 11 -48 2 -5 5
-19 8 -30 3 -11 10 -36 15 -55 5 -19 23 -84 40 -145 16 -60 34 -125 40 -143 5
-18 10 -34 11 -37 0 -3 2 -10 5 -17 2 -7 18 -67 35 -133 17 -66 36 -130 41
-143 5 -13 7 -27 4 -32 -3 -5 -1 -11 5 -15 5 -3 10 -16 10 -29 0 -12 3 -26 7
-30 4 -4 8 -17 10 -29 1 -12 11 -53 23 -92 12 -38 32 -110 45 -160 13 -49 35
-130 50 -180 27 -95 33 -114 39 -143 2 -9 10 -37 17 -62 7 -25 13 -48 15 -52
1 -5 2 -9 4 -10 1 -2 3 -12 5 -23 1 -11 19 -78 40 -150 20 -71 38 -137 40
-145 11 -40 25 -92 45 -165 12 -44 23 -87 25 -95 2 -8 4 -15 5 -15 2 0 11 -35
14 -55 1 -9 5 -20 8 -25 3 -6 9 -27 12 -49 4 -21 10 -43 13 -50 4 -6 8 -14 9
-18 1 -5 2 -9 4 -10 1 -2 3 -12 5 -23 2 -11 10 -46 19 -77 9 -32 22 -82 30
-110 8 -29 31 -111 50 -181 20 -71 38 -138 40 -150 3 -12 10 -38 16 -57 14
-43 68 -242 80 -290 4 -19 26 -99 49 -177 22 -77 43 -156 46 -173 3 -18 10
-41 16 -51 5 -10 8 -22 8 -26 -1 -4 0 -15 4 -23 8 -21 40 -133 41 -145 4 -29
20 -82 28 -92 6 -7 8 -13 5 -13 -5 0 7 -47 63 -245 17 -60 32 -117 34 -125 2
-8 11 -42 20 -75 9 -33 19 -71 22 -85 2 -14 7 -32 11 -40 3 -8 7 -19 8 -25 2
-5 8 -30 15 -55 7 -25 13 -50 14 -55 1 -6 14 -36 29 -67 33 -68 84 -120 152
-156 43 -22 63 -26 135 -26 110 0 172 29 245 115 25 30 73 129 81 167 3 18 94
332 102 352 3 8 6 20 8 25 10 40 44 155 52 176 6 15 8 30 5 33 -4 3 0 6 7 6 7
0 11 2 8 5 -5 6 6 49 60 230 91 306 85 283 96 334 3 11 10 30 17 43 7 13 12
24 11 26 -3 4 9 52 29 117 24 81 77 257 96 325 8 30 18 62 21 70 3 8 6 20 7
25 2 6 9 30 16 55 7 25 12 48 11 53 -1 4 2 7 6 7 4 0 9 11 10 24 1 13 7 37 13
52 7 16 14 37 15 47 2 9 18 63 35 120 17 56 41 138 54 182 13 44 37 127 54
185 17 58 33 113 36 123 2 10 15 55 29 100 65 215 89 293 91 302 1 6 8 30 15
55 7 25 15 50 16 55 30 110 48 171 53 175 3 3 7 12 7 20 1 8 25 94 54 190 28
96 56 189 60 205 5 17 19 67 33 112 13 45 22 85 19 88 -3 3 1 5 8 5 7 0 11 3
7 6 -3 3 -2 17 3 30 6 14 12 35 14 47 3 12 17 60 32 107 65 214 83 280 76 280
-4 0 -2 4 4 8 6 4 16 27 23 52 14 55 15 57 41 150 11 41 23 82 27 90 3 8 7 22
9 30 2 8 10 39 19 67 9 29 18 58 19 65 2 7 6 20 9 28 11 28 127 429 127 442 1
4 7 23 16 43 8 19 12 35 9 35 -3 0 1 13 10 30 9 16 13 30 10 30 -3 0 -1 8 4
18 27 51 36 221 15 294 -19 62 -56 121 -89 138 -14 7 -25 17 -25 22 0 5 -4 7
-8 4 -5 -3 -20 1 -35 9 -28 14 -184 18 -202 5 -5 -4 -27 -13 -48 -20 -47 -15
-107 -74 -129 -126 -16 -38 -54 -159 -63 -199 -2 -11 -23 -83 -45 -160 -39
-132 -76 -261 -84 -295 -3 -8 -9 -27 -15 -42 -6 -16 -8 -28 -5 -28 4 0 1 -6
-5 -14 -6 -8 -11 -18 -9 -22 1 -5 -5 -31 -14 -59 -8 -27 -19 -63 -24 -80 -11
-43 -11 -45 -14 -47 -1 -2 -3 -10 -5 -18 -2 -8 -11 -40 -20 -70 -16 -56 -22
-77 -29 -107 -3 -10 -14 -49 -25 -88 -12 -38 -27 -88 -33 -110 -6 -22 -14 -44
-17 -50 -3 -5 -6 -16 -6 -25 -2 -16 -32 -125 -42 -150 -3 -8 -8 -23 -9 -33 -2
-9 -20 -71 -40 -138 -19 -67 -37 -128 -39 -137 -2 -10 -18 -64 -35 -122 -17
-58 -33 -114 -36 -125 -2 -11 -18 -65 -34 -120 -17 -55 -32 -107 -34 -115 -2
-8 -12 -41 -21 -74 -9 -32 -18 -64 -19 -70 -2 -6 -9 -31 -16 -56 -8 -25 -14
-47 -15 -50 -1 -3 -7 -25 -14 -50 -7 -25 -14 -52 -16 -60 -2 -8 -10 -36 -19
-61 -9 -25 -18 -56 -20 -70 -3 -13 -5 -26 -6 -29 -2 -3 -2 -8 -1 -12 0 -5 -4
-8 -11 -8 -6 0 -9 -3 -6 -6 4 -3 2 -20 -3 -37 -6 -18 -12 -39 -14 -47 -2 -8
-14 -49 -25 -90 -12 -41 -23 -82 -25 -90 -2 -8 -10 -38 -20 -66 -9 -28 -18
-57 -19 -65 -2 -8 -6 -21 -9 -29 -4 -8 -8 -26 -11 -40 -2 -14 -9 -37 -15 -53
-6 -15 -8 -27 -5 -27 2 0 -1 -10 -8 -22 -7 -13 -12 -26 -11 -29 1 -3 -5 -28
-13 -55 -9 -27 -28 -94 -44 -149 -16 -55 -43 -149 -60 -210 -17 -60 -33 -117
-35 -125 -2 -8 -8 -28 -15 -45 -6 -16 -11 -31 -11 -32 1 -2 1 -4 0 -5 0 -2 -2
-10 -4 -18 -1 -8 -31 -109 -64 -225 -34 -115 -64 -217 -66 -226 -2 -9 -13 -49
-25 -89 -12 -40 -23 -80 -25 -89 -2 -9 -8 -28 -14 -43 -6 -16 -8 -28 -5 -28 4
0 2 -6 -4 -13 -11 -13 -12 -17 -12 -43 0 -8 -5 -12 -10 -9 -6 4 -10 12 -9 18
1 7 -1 19 -4 27 -6 16 -46 151 -52 179 -2 9 -11 41 -20 71 -19 66 -19 64 -34
120 -20 76 -43 154 -49 170 -3 8 -6 23 -7 33 -2 9 -4 19 -5 22 -1 3 -4 10 -5
15 -1 6 -3 11 -5 13 -1 1 -4 11 -6 22 -3 11 -6 25 -8 30 -1 6 -8 30 -15 55 -8
25 -20 66 -27 91 -18 58 -26 89 -27 112 -1 9 -4 17 -7 17 -4 0 -7 6 -8 13 -5
40 -16 83 -23 92 -7 9 -15 40 -23 85 -2 8 -11 41 -21 74 -9 32 -18 64 -20 70
-1 6 -5 18 -8 26 -3 8 -13 42 -22 75 -19 73 -20 76 -40 145 -9 30 -21 71 -25
90 -5 19 -16 60 -25 90 -10 30 -18 62 -20 70 -1 8 -5 22 -8 30 -7 18 -27 93
-26 100 0 3 -5 19 -11 35 -7 17 -14 38 -16 47 -6 28 -12 49 -29 108 -9 30 -18
62 -20 71 -2 9 -9 34 -15 55 -14 47 -20 68 -58 207 -16 59 -27 107 -23 107 3
0 1 4 -6 8 -6 4 -14 21 -17 37 -3 17 -14 63 -26 103 -11 39 -29 105 -40 145
-23 81 -23 81 -45 157 -13 44 -47 167 -70 250 -2 8 -8 30 -14 48 -5 18 -10 34
-11 37 -1 8 -10 34 -17 53 -3 9 -6 20 -5 24 1 3 -6 30 -14 59 -9 29 -18 60
-20 68 -2 9 -24 87 -49 174 -25 87 -47 166 -49 175 -1 9 -6 24 -9 32 -6 17
-36 122 -36 130 0 3 -8 30 -17 60 -9 30 -17 60 -19 65 -1 6 -5 17 -8 25 -5 15
-75 260 -82 290 -20 88 -60 208 -78 233 -29 42 -42 52 -106 83 -85 41 -145 48
-231 26 -126 -31 -197 -103 -231 -232 -5 -19 -12 -44 -15 -55 -3 -11 -7 -29
-9 -40 -2 -11 -13 -51 -25 -90 -12 -38 -24 -80 -27 -94 -2 -13 -6 -28 -9 -33
-3 -4 -7 -16 -9 -25 -2 -10 -19 -74 -39 -143 -19 -69 -40 -143 -46 -165 -21
-81 -32 -120 -38 -135 -7 -20 -12 -41 -15 -65 -2 -12 -6 -25 -9 -30 -5 -10
-19 -58 -25 -85 -1 -8 -13 -53 -27 -100 -28 -95 -96 -337 -101 -360 -2 -8 -11
-40 -20 -70 -9 -30 -18 -66 -21 -79 -3 -13 -9 -32 -15 -43 -5 -10 -8 -18 -5
-18 3 0 0 -15 -5 -32 -13 -42 -39 -128 -44 -148 -2 -8 -22 -82 -45 -165 -23
-82 -44 -157 -45 -165 -2 -8 -4 -15 -5 -15 -1 0 -3 -7 -5 -15 -2 -8 -18 -64
-35 -125 -17 -60 -33 -118 -35 -128 -3 -9 -8 -27 -11 -40 -3 -12 -6 -28 -6
-34 -1 -7 -4 -13 -8 -13 -4 0 -7 -7 -7 -15 0 -8 -5 -32 -11 -52 -12 -39 -101
-356 -107 -383 -2 -8 -14 -49 -25 -90 -12 -41 -23 -79 -24 -85 -2 -5 -8 -30
-15 -55 -7 -25 -15 -52 -16 -60 -2 -8 -10 -36 -18 -62 -8 -27 -13 -48 -11 -48
3 0 -2 -14 -11 -30 -9 -16 -14 -30 -11 -30 2 0 -3 -21 -11 -47 -8 -27 -16 -55
-18 -63 -12 -49 -75 -272 -79 -279 -3 -4 -7 -21 -10 -38 -3 -16 -31 -117 -61
-224 -31 -107 -58 -203 -59 -214 -2 -11 -6 -27 -9 -35 -8 -22 -29 -89 -31
-103 -2 -7 -8 -32 -15 -57 -8 -25 -15 -52 -16 -60 -2 -8 -4 -16 -5 -17 -2 -2
-3 -6 -4 -10 -1 -5 -6 -23 -10 -41 -8 -32 -17 -36 -22 -9 -2 7 -10 39 -20 72
-9 33 -17 65 -19 70 -1 6 -7 23 -13 38 -7 16 -12 32 -12 37 0 5 -6 29 -14 52
-23 74 -37 122 -40 138 -2 8 -5 22 -8 30 -3 8 -11 35 -18 60 -7 25 -19 64 -26
87 -7 23 -16 52 -18 65 -3 13 -21 75 -40 138 -19 63 -32 118 -30 122 3 4 0 8
-7 8 -7 0 -10 3 -6 6 3 4 0 23 -7 43 -15 41 -36 109 -40 131 -2 8 -6 22 -9 30
-6 14 -46 152 -50 175 -2 6 -6 16 -10 22 -5 7 -6 13 -3 13 3 0 1 12 -5 28 -6
15 -13 35 -15 44 -2 10 -6 26 -8 35 -2 10 -11 38 -19 63 -16 49 -79 272 -86
302 -1 4 -8 26 -16 48 -8 22 -12 40 -8 40 3 0 1 6 -5 13 -6 6 -10 14 -10 17 0
3 -6 25 -13 50 -7 25 -14 55 -15 68 -2 13 -7 29 -13 36 -5 6 -12 25 -15 41 -3
17 -14 59 -25 95 -61 205 -71 239 -74 256 -1 11 -5 24 -9 29 -7 13 -22 78 -20
88 1 4 -3 7 -10 7 -6 0 -9 2 -6 5 3 3 -6 43 -19 88 -13 45 -33 111 -43 147
-10 36 -38 135 -63 220 -25 85 -43 158 -40 163 2 4 0 7 -5 7 -7 0 -14 20 -37
115 -3 11 -19 65 -35 120 -17 55 -33 107 -35 115 -2 8 -16 56 -30 105 -15 50
-28 95 -29 100 -2 6 -6 17 -9 25 -3 8 -9 29 -13 45 -4 17 -8 32 -9 35 -1 3 -7
25 -14 50 -6 25 -16 56 -21 70 -6 14 -11 34 -13 45 -2 11 -6 27 -9 35 -3 8
-13 40 -22 70 -8 30 -31 109 -51 175 -20 66 -37 127 -39 135 -2 8 -6 22 -9 30
-3 8 -13 42 -22 75 -36 137 -46 171 -52 185 -3 8 -7 17 -7 20 -5 24 -50 179
-56 195 -9 23 -48 159 -56 192 -2 12 -9 35 -15 50 -6 16 -13 39 -16 53 -6 31
-9 41 -15 60 -13 38 -34 112 -54 185 -5 20 -86 291 -97 325 -6 19 -11 40 -12
45 -1 11 -19 73 -42 145 -8 25 -16 52 -18 60 -10 44 -30 116 -35 120 -3 3 -6
14 -8 25 -2 11 -14 56 -28 100 -13 44 -26 89 -29 100 -9 40 -24 92 -49 175
-27 86 -37 124 -38 148 -1 6 -5 12 -9 12 -3 0 -9 12 -12 28 -7 37 -12 59 -30
117 -42 139 -61 203 -68 230 -4 17 -17 62 -29 100 -11 39 -23 77 -25 85 -1 8
-11 42 -21 75 -10 33 -19 65 -20 70 -13 46 -25 88 -39 135 -9 30 -18 64 -20
75 -3 11 -9 31 -15 45 -5 14 -11 34 -13 45 -2 11 -7 27 -10 35 -3 8 -22 71
-42 140 -20 69 -43 148 -51 175 -8 28 -17 60 -19 72 -3 12 -10 35 -16 50 -6
16 -10 29 -10 30 1 6 -12 41 -31 85 -26 59 -96 130 -157 159 -70 33 -180 35
-248 4 -99 -46 -184 -157 -208 -271 -3 -12 -14 -51 -24 -85 -16 -55 -26 -90
-37 -134 -1 -5 -12 -46 -24 -90 -12 -44 -23 -84 -24 -90 -5 -19 -27 -100 -41
-150 -8 -27 -31 -108 -50 -180 -37 -137 -49 -182 -70 -255 -7 -25 -30 -108
-50 -185 -20 -77 -39 -147 -42 -155 -3 -8 -7 -22 -9 -30 -2 -8 -26 -98 -54
-200 -29 -102 -54 -196 -56 -209 -3 -14 -7 -28 -10 -33 -3 -5 -8 -21 -11 -36
-7 -36 -9 -44 -16 -62 -7 -18 -36 -125 -43 -160 -2 -14 -9 -36 -14 -50 -5 -14
-12 -36 -15 -50 -5 -27 -42 -162 -76 -280 -11 -41 -28 -100 -35 -130 -8 -30
-17 -63 -19 -72 -3 -10 -7 -26 -9 -35 -3 -10 -9 -32 -15 -50 -5 -17 -7 -34 -3
-37 3 -3 0 -6 -7 -6 -7 0 -9 -4 -6 -10 3 -5 3 -16 -2 -22 -4 -7 -8 -17 -10
-23 -9 -44 -23 -96 -98 -365 -25 -91 -48 -172 -49 -180 -2 -8 -11 -42 -20 -75
-9 -33 -19 -68 -21 -77 -12 -43 -15 -57 -34 -123 -17 -64 -80 -296 -86 -320
-1 -5 -4 -17 -7 -25 -9 -24 -31 -104 -33 -115 0 -5 -7 -30 -15 -55 -7 -25 -15
-54 -17 -65 -8 -37 -11 -50 -14 -50 -1 0 -3 -9 -5 -20 -1 -11 -12 -51 -24 -90
-12 -38 -24 -83 -27 -100 -3 -16 -8 -37 -13 -45 -4 -8 -15 -48 -25 -88 -16
-65 -31 -100 -32 -69 0 7 -12 55 -27 107 -14 52 -31 111 -36 130 -5 19 -21 76
-35 125 -43 158 -87 319 -90 330 -1 5 -7 30 -14 55 -8 25 -15 52 -16 60 -2 8
-4 16 -5 18 -2 1 -4 7 -5 12 -1 6 -3 11 -5 13 -1 1 -3 9 -5 17 -2 8 -7 26 -10
40 -3 14 -8 36 -11 49 -3 14 -7 28 -10 33 -3 4 -7 17 -9 28 -2 11 -33 126 -69
255 -36 130 -66 243 -66 251 0 8 -4 22 -9 32 -6 9 -35 112 -66 227 -31 116
-58 217 -60 225 -3 8 -9 31 -14 50 -5 19 -21 78 -36 130 -14 52 -28 102 -30
110 -2 8 -4 15 -5 15 -1 0 -4 11 -7 25 -7 39 -11 55 -13 55 -1 0 -3 7 -5 15
-2 8 -7 26 -10 40 -3 14 -8 32 -10 40 -2 8 -4 15 -5 15 -1 0 -3 7 -5 15 -2 8
-15 58 -30 110 -14 52 -35 127 -45 165 -11 39 -29 102 -40 140 -12 39 -22 81
-24 95 -1 14 -8 36 -15 48 -7 13 -10 26 -7 29 3 3 1 14 -5 25 -6 11 -12 29
-14 40 -5 24 -59 227 -82 303 -17 58 -60 217 -98 360 -14 55 -29 107 -32 115
-3 8 -7 20 -8 25 -1 6 -3 12 -4 15 -2 3 -4 12 -6 20 -2 8 -13 51 -25 95 -12
44 -30 112 -40 150 -10 39 -24 86 -30 105 -6 19 -13 43 -15 53 -2 10 -7 27
-10 37 -3 10 -8 27 -10 37 -6 24 -29 113 -49 188 -38 138 -110 236 -204 277
-58 26 -162 33 -219 14z"/>
</g>
</svg>
