<?xml version="1.0" standalone="no"?>
<!DOCTYPE svg PUBLIC "-//W3C//DTD SVG 20010904//EN"
 "http://www.w3.org/TR/2001/REC-SVG-20010904/DTD/svg10.dtd">
<svg version="1.0" xmlns="http://www.w3.org/2000/svg"
 width="544.000000pt" height="544.000000pt" viewBox="0 0 544.000000 544.000000"
 preserveAspectRatio="xMidYMid meet">
<metadata>
Created by potrace 1.11, written by Peter Selinger 2001-2013
</metadata>
<g transform="translate(0.000000,544.000000) scale(0.100000,-0.100000)"
fill="#000000" stroke="none">
<path d="M70 2824 l0 -2613 508 2 507 2 0 285 0 285 106 3 106 3 0 207 c0 114
-3 209 -8 212 -4 3 -50 4 -103 4 -53 -1 -97 1 -97 5 -1 3 -2 574 -3 1269 l-1
1262 35 1 c19 0 45 2 58 3 26 3 26 4 118 -214 31 -74 59 -139 62 -145 4 -5 7
-14 9 -20 1 -5 33 -82 71 -170 38 -88 176 -410 307 -715 130 -305 244 -571
252 -590 17 -39 27 -61 72 -170 18 -41 37 -86 44 -100 29 -63 30 -62 -67 -103
-49 -20 -92 -39 -94 -42 -5 -4 23 -76 71 -185 11 -25 35 -81 54 -125 19 -44
43 -100 54 -125 l20 -45 90 0 89 -1 0 106 0 106 406 0 406 -1 20 45 c11 25 24
54 28 65 4 11 15 36 23 55 106 241 189 439 192 454 2 10 8 23 13 30 5 6 30 63
57 126 26 63 56 133 65 155 25 55 186 435 222 520 38 90 61 135 69 135 4 0 38
-14 76 -31 120 -54 106 -57 143 29 18 42 41 95 51 117 49 111 79 184 79 190 0
3 -21 15 -47 27 -47 20 -136 60 -140 63 -2 1 22 60 53 131 31 71 56 135 57
142 0 6 4 12 9 12 4 0 8 5 8 11 0 5 9 29 19 52 10 23 31 71 46 107 25 62 32
79 68 160 9 19 25 58 37 85 65 154 59 222 59 -677 -1 -607 -4 -807 -12 -810
-7 -2 -54 -3 -104 -3 -51 1 -94 -1 -94 -4 -1 -3 -2 -97 -3 -209 -1 -172 1
-203 14 -206 8 -2 56 -3 107 -3 l92 2 0 -870 c0 -478 0 -878 1 -887 0 -15 29
-17 353 -17 193 0 366 0 383 -1 l30 0 0 -102 0 -103 127 -3 127 -3 0 2720 0
2720 -730 -2 -730 -2 -156 -365 c-176 -411 -191 -447 -204 -475 -5 -11 -52
-121 -105 -245 -53 -124 -100 -229 -104 -233 -5 -4 -32 3 -62 16 -131 60 -127
59 -143 29 -18 -36 -144 -334 -148 -349 -3 -12 142 -83 169 -83 7 0 13 -5 13
-11 0 -9 -117 -290 -160 -384 -10 -22 -31 -69 -45 -105 -15 -36 -35 -83 -45
-105 -10 -22 -44 -103 -76 -180 -32 -77 -62 -143 -67 -146 -5 -3 -9 -10 -9
-15 -1 -28 -49 -134 -60 -134 -4 0 -7 3 -6 8 1 7 -9 34 -41 105 -10 23 -71
166 -135 317 -64 151 -121 284 -125 295 -30 68 -47 108 -116 270 -42 99 -82
191 -87 205 -19 44 -17 51 20 66 20 8 55 24 78 34 23 11 46 20 52 20 29 0 21
25 -97 295 -10 22 -24 55 -31 73 -7 17 -14 32 -15 32 -3 0 -72 -30 -144 -62
-36 -16 -45 -17 -52 -6 -5 7 -50 110 -100 228 -50 118 -97 229 -105 245 -45
101 -96 221 -98 230 -1 6 -14 36 -29 68 -15 32 -27 59 -27 61 0 2 -8 21 -17
42 -9 22 -17 41 -18 44 0 3 -3 10 -7 15 -3 6 -22 51 -43 100 -20 50 -39 92
-42 95 -2 3 -331 6 -729 6 l-724 1 0 -2613z"/>
</g>
</svg>
