<?xml version="1.0" encoding="UTF-8" standalone="no"?>
<svg
   xmlns:dc="http://purl.org/dc/elements/1.1/"
   xmlns:cc="http://creativecommons.org/ns#"
   xmlns:rdf="http://www.w3.org/1999/02/22-rdf-syntax-ns#"
   xmlns:svg="http://www.w3.org/2000/svg"
   xmlns="http://www.w3.org/2000/svg"
   id="svg2203"
   version="1.1"
   viewBox="0 0 10.748342 7.9945798"
   height="7.9945798mm"
   width="10.748342mm">
  <defs
     id="defs2197" />
  <metadata
     id="metadata2200">
    <rdf:RDF>
      <cc:Work
         rdf:about="">
        <dc:format>image/svg+xml</dc:format>
        <dc:type
           rdf:resource="http://purl.org/dc/dcmitype/StillImage" />
        <dc:title></dc:title>
      </cc:Work>
    </rdf:RDF>
  </metadata>
  <g
     transform="translate(-111.79846,-159.95502)"
     id="layer1">
    <path
       id="path92"
       style="fill:#150258;fill-opacity:1;fill-rule:nonzero;stroke:none;stroke-width:0.35277775"
       d="m 116.05909,160.92519 -1.07598,3.8541 c -0.013,0.048 -0.0427,0.0875 -0.0885,0.11818 -0.0462,0.0307 -0.0974,0.0462 -0.15452,0.0462 -0.0526,0 -0.10266,-0.0145 -0.15099,-0.0427 -0.0483,-0.0289 -0.079,-0.0716 -0.0921,-0.12841 l -1.08197,-3.8481 -1.14618,3.99274 c -0.0307,0.11395 -0.11359,0.17074 -0.24977,0.17074 -0.0921,0 -0.15557,-0.036 -0.1905,-0.1083 -0.0353,-0.0723 -0.0395,-0.1591 -0.013,-0.25964 l 1.34056,-4.54802 c 0.0222,-0.0702 0.0561,-0.12382 0.10195,-0.16086 0.0459,-0.0374 0.0998,-0.0561 0.16122,-0.0561 0.061,0 0.115,0.0197 0.16087,0.0593 0.0462,0.0395 0.0776,0.0896 0.0953,0.15099 l 1.06468,3.88514 1.05833,-3.87844 c 0.0219,-0.0656 0.0557,-0.11818 0.10196,-0.15769 0.0459,-0.0395 0.0995,-0.0593 0.16086,-0.0593 0.0614,0 0.11501,0.0197 0.16087,0.0593 0.0462,0.0395 0.078,0.0896 0.0952,0.15099 l 1.98049,6.81673 1.0728,-3.84387 c 0.0131,-0.048 0.0427,-0.0875 0.0885,-0.11783 0.0459,-0.0307 0.097,-0.0459 0.15381,-0.0459 0.0526,0 0.10266,0.0141 0.15099,0.0423 0.048,0.0286 0.0787,0.0713 0.0917,0.12806 l 1.07879,3.83787 1.14336,-3.98215 c 0.0303,-0.1136 0.11359,-0.1704 0.24906,-0.1704 0.0917,0 0.15487,0.036 0.19014,0.10831 0.0346,0.072 0.0392,0.15839 0.013,0.25858 l -1.33737,4.53637 c -0.0219,0.0699 -0.0554,0.12348 -0.10125,0.16052 -0.0462,0.037 -0.0998,0.0557 -0.16087,0.0557 -0.061,0 -0.115,-0.0198 -0.16051,-0.0589 -0.0459,-0.0395 -0.0776,-0.0896 -0.0952,-0.15099 l -1.06186,-3.87491 -1.05551,3.86856 c -0.0215,0.0656 -0.0554,0.11783 -0.10125,0.15734 -0.0462,0.0392 -0.0995,0.0589 -0.16087,0.0589 -0.061,0 -0.11465,-0.0198 -0.16051,-0.0589 -0.0459,-0.0395 -0.0776,-0.0896 -0.0952,-0.15099 z" />
  </g>
</svg>
