<?xml version="1.0" encoding="UTF-8" standalone="no"?>
<svg
   xmlns:dc="http://purl.org/dc/elements/1.1/"
   xmlns:cc="http://creativecommons.org/ns#"
   xmlns:rdf="http://www.w3.org/1999/02/22-rdf-syntax-ns#"
   xmlns:svg="http://www.w3.org/2000/svg"
   xmlns="http://www.w3.org/2000/svg"
   height="270.16202"
   width="1062.6366"
   id="svg1516"
   version="1.1"
   viewBox="0 0 1062.6366 270.16202">
  <metadata
     id="metadata1520">
    <rdf:RDF>
      <cc:Work
         rdf:about="">
        <dc:format>image/svg+xml</dc:format>
        <dc:type
           rdf:resource="http://purl.org/dc/dcmitype/StillImage" />
        <dc:title>MW-Data-Science-logo_v02_2021_yellow</dc:title>
      </cc:Work>
    </rdf:RDF>
  </metadata>
  <defs
     id="defs1491">
    <style
       id="style1489">.cls-1{font-size:54.35px;font-family:RoundedMplus1c-ExtraBold, &quot;Rounded Mplus 1c&quot;;font-weight:800;letter-spacing:0.04em;}.cls-1,.cls-8{fill:#f5e900;}.cls-2{letter-spacing:0.01em;}.cls-3{letter-spacing:0.03em;}.cls-4{letter-spacing:0.04em;}.cls-5{letter-spacing:0.06em;}.cls-6{letter-spacing:0.05em;}.cls-7{letter-spacing:0.03em;}</style>
  </defs>
  <title
     id="title1493">MW-Data-Science-logo_v02_2021_yellow</title>
  <g
     transform="translate(-198.31877,-156.49899)"
     data-name="Layer 1"
     id="Layer_1">
    <text
       style="font-weight:800;font-size:54.34999847px;font-family:RoundedMplus1c-ExtraBold, 'Rounded Mplus 1c';letter-spacing:0.04em;fill:#f5e900"
       id="text1511"
       transform="translate(426.63,207.9)"
       class="cls-1">D<tspan
   style="letter-spacing:0.01em"
   id="tspan1495"
   y="0"
   x="39.889999"
   class="cls-2">a</tspan>
<tspan
   style="letter-spacing:0.03em"
   id="tspan1497"
   y="0"
   x="72.120003"
   class="cls-3">t</tspan>
<tspan
   style="letter-spacing:0.04em"
   id="tspan1499"
   y="0"
   x="103.15"
   class="cls-4">a Scienc</tspan>
<tspan
   style="letter-spacing:0.06em"
   id="tspan1501"
   y="0"
   x="341.88"
   class="cls-5">e</tspan>
<tspan
   id="tspan1503"
   xml:space="preserve"
   y="0"
   x="375.63"> B</tspan><tspan
   style="letter-spacing:0.05em"
   id="tspan1505"
   y="0"
   x="430.51001"
   class="cls-6">o</tspan>
<tspan
   style="letter-spacing:0.03em"
   id="tspan1507"
   y="0"
   x="465.29001"
   class="cls-7">ot</tspan>
<tspan
   style="letter-spacing:0.04em"
   id="tspan1509"
   y="0"
   x="530.02002"
   class="cls-4">camp 2021</tspan>
</text>
    <path
       style="fill:#f5e900"
       id="path1513"
       d="m 342.29,189.28 -36.35,130.24 a 6.9,6.9 0 0 1 -3,4 9.22,9.22 0 0 1 -5.21,1.55 9.92,9.92 0 0 1 -5.11,-1.44 6.51,6.51 0 0 1 -3.11,-4.33 L 253,189.25 214.22,324.18 q -1.56,5.77 -8.44,5.78 -4.67,0 -6.44,-3.67 c -1.19,-2.44 -1.34,-5.37 -0.45,-8.77 L 244.2,163.83 a 11,11 0 0 1 3.44,-5.44 8.4,8.4 0 0 1 5.44,-1.89 8.14,8.14 0 0 1 5.45,2 10.26,10.26 0 0 1 3.22,5.11 l 36,131.28 35.76,-131.06 a 11.75,11.75 0 0 1 3.45,-5.33 8.4,8.4 0 0 1 10.88,0 10.26,10.26 0 0 1 3.22,5.11 L 417.94,394 454.2,264.07 a 6.87,6.87 0 0 1 3,-4 9.19,9.19 0 0 1 5.2,-1.55 9.88,9.88 0 0 1 5.1,1.44 6.49,6.49 0 0 1 3.1,4.32 L 507.05,394 545.68,259.42 q 1.55,-5.75 8.42,-5.75 c 3.1,0 5.24,1.21 6.42,3.65 1.18,2.44 1.33,5.35 0.45,8.75 l -45.19,153.28 a 11,11 0 0 1 -3.44,5.43 8.39,8.39 0 0 1 -5.42,1.88 8.13,8.13 0 0 1 -5.43,-2 10.26,10.26 0 0 1 -3.21,-5.1 L 462.4,288.63 426.73,419.35 a 11.74,11.74 0 0 1 -3.43,5.32 8.4,8.4 0 0 1 -10.86,0 10.26,10.26 0 0 1 -3.21,-5.1 z"
       class="cls-8" />
  </g>
</svg>
