<?xml version="1.0" encoding="UTF-8" standalone="no"?>
<svg
   xmlns:dc="http://purl.org/dc/elements/1.1/"
   xmlns:cc="http://creativecommons.org/ns#"
   xmlns:rdf="http://www.w3.org/1999/02/22-rdf-syntax-ns#"
   xmlns:svg="http://www.w3.org/2000/svg"
   xmlns="http://www.w3.org/2000/svg"
   id="svg1595"
   version="1.1"
   viewBox="0 0 35.030476 7.9946518"
   height="7.9946518mm"
   width="35.030476mm">
  <defs
     id="defs1589" />
  <metadata
     id="metadata1592">
    <rdf:RDF>
      <cc:Work
         rdf:about="">
        <dc:format>image/svg+xml</dc:format>
        <dc:type
           rdf:resource="http://purl.org/dc/dcmitype/StillImage" />
        <dc:title></dc:title>
      </cc:Work>
    </rdf:RDF>
  </metadata>
  <g
     transform="translate(-67.151426,-91.163383)"
     id="layer1">
    <text
       id="text80"
       style="font-style:normal;font-variant:normal;font-weight:normal;font-stretch:normal;font-size:1.60820806px;font-family:'Rounded Mplus 1c Bold';-inkscape-font-specification:'Rounded Mplus 1c Bold, ';writing-mode:lr-tb;fill:#f5e900;fill-opacity:1;fill-rule:nonzero;stroke:none;stroke-width:0.35277775"
       x="73.908051"
       y="92.684601">
      <tspan
         y="92.684601"
         id="tspan78"
         x="73.908051"
         style="stroke-width:0.35277775">Malawi Data Science Bootcamp 2021</tspan>
    </text>
    <path
       id="path92"
       style="fill:#f5e900;fill-opacity:1;fill-rule:nonzero;stroke:none;stroke-width:0.35277775"
       d="m 71.412076,92.133528 -1.075973,3.854097 c -0.01305,0.04798 -0.04269,0.08749 -0.08855,0.118181 -0.04621,0.03069 -0.09737,0.04621 -0.154516,0.04621 -0.05256,0 -0.102659,-0.01446 -0.150989,-0.04269 -0.04833,-0.02893 -0.07902,-0.07161 -0.09208,-0.128411 l -1.08197,-3.8481 -1.146175,3.992738 c -0.03069,0.113948 -0.113594,0.170745 -0.249766,0.170745 -0.09208,0 -0.155575,-0.03598 -0.1905,-0.108303 -0.03528,-0.07232 -0.03951,-0.159103 -0.01305,-0.259644 l 1.340555,-4.548011 c 0.02222,-0.0702 0.05609,-0.123825 0.101953,-0.160867 0.04586,-0.03739 0.09984,-0.05609 0.16122,-0.05609 0.06103,0 0.115005,0.01976 0.160866,0.05927 0.04621,0.03951 0.07761,0.08961 0.09525,0.150989 l 1.064684,3.885141 1.058333,-3.878438 c 0.02187,-0.06562 0.05574,-0.118181 0.101953,-0.157692 0.04586,-0.03951 0.09948,-0.05927 0.160866,-0.05927 0.06138,0 0.115006,0.01976 0.160867,0.05927 0.04621,0.03951 0.07796,0.08961 0.09525,0.150989 l 1.980494,6.816725 1.072798,-3.843867 c 0.01305,-0.04798 0.04269,-0.08749 0.08855,-0.117828 0.04586,-0.03069 0.09701,-0.04586 0.153811,-0.04586 0.05256,0 0.102658,0.01411 0.150989,0.04233 0.04798,0.02857 0.07867,0.07126 0.09172,0.128059 l 1.078794,3.837869 1.143353,-3.982155 c 0.03034,-0.113595 0.113594,-0.170392 0.249061,-0.170392 0.09172,0 0.154869,0.03598 0.190147,0.108303 0.03457,0.07197 0.03916,0.158397 0.01305,0.258586 l -1.337378,4.536369 c -0.02187,0.06985 -0.05539,0.123473 -0.101247,0.160514 -0.04621,0.03704 -0.09984,0.05574 -0.160867,0.05574 -0.06103,0 -0.115006,-0.01976 -0.160514,-0.05891 -0.04586,-0.03951 -0.07761,-0.08961 -0.09525,-0.150989 l -1.06186,-3.874911 -1.055511,3.868561 c -0.02152,0.06562 -0.05539,0.117828 -0.101247,0.157339 -0.04621,0.03916 -0.09948,0.05891 -0.160867,0.05891 -0.06103,0 -0.114653,-0.01976 -0.160514,-0.05891 -0.04586,-0.03951 -0.07761,-0.08961 -0.09525,-0.150989 z" />
  </g>
</svg>
